<?xml version="1.0" encoding="UTF-8"?>
<!DOCTYPE svg PUBLIC "-//W3C//DTD SVG 1.0//EN" "http://www.w3.org/TR/2001/REC-SVG-20010904/DTD/svg10.dtd">
<!-- Creator: CorelDRAW 2017 -->
<svg xmlns="http://www.w3.org/2000/svg" xml:space="preserve" width="356px" height="200px" version="1.0" shape-rendering="geometricPrecision" text-rendering="geometricPrecision" image-rendering="optimizeQuality" fill-rule="evenodd" clip-rule="evenodd"
viewBox="0 0 35600 20025"
 xmlns:xlink="http://www.w3.org/1999/xlink">
 <g id="__x0023_Layer_x0020_1">
  <metadata id="CorelCorpID_0Corel-Layer"/>
  <g id="_2805033648272">
   <path fill="#E6E7E8" d="M0 0l35600 0 0 20025 -35600 0 0 -20025z"/>
   <path fill="#373435" fill-opacity="0.078431" d="M19449 14010l-1913 1974 264 74 3 0 3084 -852 -2824 2914 4377 -1218 -3026 3123 -3197 0 -187 0 -2071 0 -4 0 -335 0 -7 0 -1722 0 -1187 0 -559 0 -109 0 -132 0 -2526 0 -356 0 -240 0 -182 0 -71 0 -1455 0 -247 0 -107 0 -327 0 -374 0 -56 0 -12 0 -712 0 -191 0 -21 0 -18 0 -11 0 -663 0 -36 0 -274 0 -5 0 -312 0 -67 0 -243 0 -188 0 -521 0 -54 0 -635 0 0 -255 0 -408 0 -51 0 -272 0 -375 0 -53 0 -247 0 -40 0 -48 0 -315 0 -253 0 -10 0 -31 0 -34 0 -22 0 -698 0 -1405 13250 -13673 0 132 0 133 0 133 0 133 0 133 0 133 0 133 0 132 0 133 0 133 0 77 1362 -1405 0 86 0 87 0 87 0 88 0 87 0 87 0 88 0 88 -1362 1405 0 22 33 0 686 -708 6 -3 9 -2 13 -1 17 0 69 0 69 0 69 0 38 0 1368 -1411 0 81 0 81 0 81 1 81 0 81 0 81 0 81 0 82 0 5 0 6 0 6 0 7 0 6 0 7 0 7 0 8 79 0 78 0 77 0 79 0 78 0 78 0 79 0 79 0 0 8 0 7 0 7 0 6 0 6 0 6 0 6 0 5 0 83 0 82 0 82 0 83 0 82 0 82 0 83 0 82 0 25 710 -733 78 0 78 0 78 0 22 0 681 -703 0 3 0 3 0 4 -1 3 0 4 0 3 0 4 0 3 0 129 0 129 0 129 0 129 0 129 0 129 0 129 0 128 0 129 0 129 0 129 0 129 0 125 1647 -1699 -42 69 -42 69 -42 69 -42 70 -42 69 -42 69 -42 69 -42 69 -14 24 -15 23 -14 24 -14 24 -15 23 -15 24 -15 25 -15 24 -426 441 54 84 60 93 61 93 60 94 62 94 26 41 583 -601 1 1 1 0 1 0 1 0 2 1 1 0 1 0 1 0 0 5 0 1 1058 -1091 0 88 0 89 0 89 0 89 0 89 0 89 0 89 0 89 0 89 0 88 0 89 0 89 0 89 0 89 0 89 0 89 0 88 0 88 0 88 0 88 0 87 0 88 0 88 0 88 107 0 106 0 107 0 107 0 107 0 106 0 107 0 107 0 107 0 106 0 107 0 107 0 107 0 106 0 107 0 107 0 -4789 4942 239 0 3683 0 -3014 3111 1186 0 -173 1956 -33 41z"/>
   <g>
    <path fill="#FEFEFE" fill-rule="nonzero" d="M12087 5224l1079 11683 4642 1284 4632 -1289 1073 -11678 -11426 0z"/>
    <path fill="#606062" fill-rule="nonzero" d="M17902 1835c247,0 494,0 740,0 6,10 11,20 17,30 134,221 268,441 403,661 10,16 20,33 33,53 41,-66 79,-128 117,-191 112,-184 224,-369 336,-553 246,0 493,0 739,0 1,10 2,20 2,31 0,685 0,1370 0,2055 0,13 -1,26 -2,39 -233,0 -467,0 -700,0 -1,-18 -3,-36 -3,-55 0,-314 0,-629 0,-944 0,-13 0,-27 0,-41 -3,0 -6,-1 -9,-2 -161,249 -322,497 -486,751 -166,-256 -326,-503 -486,-751 -3,1 -6,1 -8,2 0,347 0,693 0,1040 -231,0 -462,0 -693,0 0,-12 -1,-23 -1,-35 0,-688 0,-1375 0,-2063 0,-9 1,-18 1,-27z"/>
    <path fill="#606062" fill-rule="nonzero" d="M13958 3960c-236,0 -472,0 -708,0 0,-708 0,-1417 0,-2125 239,0 477,0 716,0 -1,9 -4,18 -4,27 0,214 0,429 0,644 0,9 2,18 3,27 217,0 430,0 647,0 0,-235 0,-467 0,-698 236,0 472,0 708,0 0,708 0,1417 0,2125 -236,0 -472,0 -708,0 0,-237 0,-473 0,-714 -19,0 -33,0 -47,0 -184,0 -367,0 -551,0 -52,0 -52,0 -52,50 0,205 0,409 0,614 0,16 -3,33 -4,50z"/>
    <path fill="#606062" fill-rule="nonzero" d="M15627 1835c653,0 1307,0 1960,0 0,233 0,465 0,703 -208,0 -413,0 -622,0 0,477 0,950 0,1422 -236,0 -472,0 -708,0 -1,-18 -2,-37 -2,-55 0,-439 0,-878 0,-1318 0,-15 0,-30 0,-51 -212,0 -418,0 -627,0 0,-21 0,-37 0,-52 0,-217 -1,-433 -1,-649z"/>
    <path fill="#606062" fill-rule="nonzero" d="M20642 1835c236,0 472,0 708,0 1,17 2,34 2,51 0,439 0,878 0,1317 0,16 0,33 0,54 335,0 665,0 998,0 0,237 0,470 0,703 -569,0 -1139,0 -1708,0 0,-234 0,-469 0,-703 0,-474 0,-948 0,-1422z"/>
    <path fill="#FF5900" fill-rule="nonzero" d="M12087 5224l1079 11683 4642 1284 4632 -1289 1073 -11678 -11426 0zm3518 3678l132 1506 64 60 1999 0 3544 0 -416 4688 -41 50 -3084 852 -3 0 -3190 -890 -209 -2390 1510 -4 43 43 102 1154 34 40 1708 442 2 -1 1649 -442 33 -41 173 -1956 -1855 0 -3436 0 -38 -35 -409 -4552 0 -70 3883 0 3821 0 -138 1546 -3683 0 -2195 0z"/>
   </g>
   <path fill="#373435" fill-opacity="0.031373" d="M2082 17547c68,104 112,203 155,312 32,64 49,183 199,183 44,0 107,-14 163,-45 63,-33 111,-83 136,-159l60 -202 146 -72 10 10c-20,77 -25,149 -25,206 0,170 146,234 262,234 68,0 129,-34 129,-95 0,-81 -34,-217 -78,-339 68,-68 136,-136 214,-191l12 6c34,144 53,287 53,381 0,93 -41,196 -75,264 -70,132 -194,238 -344,238 -114,0 -241,-58 -328,-163l-5 0c-82,101 -209,193 -412,193l-63 0c-10,134 -39,229 -83,314 -121,237 -480,404 -818,404 -470,0 -706,-272 -706,-633 0,-223 73,-431 185,-578l92 38c-70,134 -117,262 -117,385 0,338 275,499 592,499 294,0 658,-187 724,-404 -25,-237 -114,-348 -250,-565 41,-72 94,-144 160,-221l12 0zm5421 -1274c99,62 196,136 291,221 -53,74 -119,142 -201,202 -95,-77 -190,-143 -287,-213 66,-74 131,-146 197,-210zm51 926c-160,0 -291,105 -291,183 0,168 320,219 703,217 -48,-196 -216,-400 -412,-400zm-359 895c208,0 390,-6 529,-41 155,-39 286,-118 286,-171 0,-15 0,-31 -5,-46 -87,8 -187,8 -274,8 -282,0 -498,-64 -583,-222 -21,-44 -36,-93 -36,-149 0,-152 66,-303 182,-406 97,-85 204,-138 313,-138 197,0 354,158 464,408 60,136 101,293 101,491 0,132 -36,243 -118,326 -153,148 -435,204 -867,204l-196 0 0 0 -51 0c-107,0 -184,-19 -245,-66l-10 0c3,25 5,50 5,72 0,97 -32,221 -97,320 -192,287 -400,410 -580,410 -182,0 -405,-70 -606,-161l36 -70c65,27 155,46 279,46 325,0 752,-314 805,-619 -12,-25 -34,-58 -65,-93 -95,-113 -155,-208 -211,-307 48,-95 92,-171 133,-239l17 -2c139,282 265,445 546,445l44 0 0 0 204 0zm-1408 299c24,-130 26,-276 26,-413l0 -202c0,-377 -48,-926 -87,-1282 68,-75 163,-161 238,-219l22 6c51,450 63,972 63,1452 0,126 -5,250 -17,340 -7,114 -73,201 -214,332l-31 -14zm-1449 -596c7,177 94,318 398,318 189,0 349,-50 526,-135 32,-14 49,-33 49,-49 0,-111 -85,-258 -228,-392 -139,-126 -323,-237 -495,-311 -59,-25 -78,-52 -78,-77 0,-51 68,-158 124,-235l19 -2c197,103 417,256 580,427 148,157 240,316 240,489 0,128 -39,250 -102,361 -216,109 -446,192 -674,192 -277,0 -466,-130 -466,-436 0,-33 0,-84 12,-150l95 0zm-501 -503l172 278c63,103 122,215 122,392l0 227c0,183 -117,379 -306,573 -148,132 -279,188 -400,188 -180,0 -386,-56 -624,-159l27 -70c75,21 162,37 269,37 342,-2 692,-252 852,-557 19,-35 26,-68 26,-90 0,-36 -19,-75 -34,-110 -87,-165 -184,-315 -291,-453 56,-89 112,-174 173,-258l14 2z"/>
  </g>
 </g>
</svg>
