<?xml version="1.0" encoding="UTF-8"?>
<!DOCTYPE svg PUBLIC "-//W3C//DTD SVG 1.0//EN" "http://www.w3.org/TR/2001/REC-SVG-20010904/DTD/svg10.dtd">
<!-- Creator: CorelDRAW 2017 -->
<svg xmlns="http://www.w3.org/2000/svg" xml:space="preserve" width="356px" height="200px" version="1.0" shape-rendering="geometricPrecision" text-rendering="geometricPrecision" image-rendering="optimizeQuality" fill-rule="evenodd" clip-rule="evenodd"
viewBox="0 0 35600 20025"
 xmlns:xlink="http://www.w3.org/1999/xlink">
 <g id="__x0023_Layer_x0020_1">
  <metadata id="CorelCorpID_0Corel-Layer"/>
  <g id="_2804890612576">
   <path fill="#E6E7E8" d="M0 0l35600 0 0 20025 -35600 0 0 -20025z"/>
   <path fill="#373435" fill-opacity="0.078431" d="M11356 4833l-810 907 12 0 1253 -1403 0 43 -1 44 0 43 0 44 0 43 0 44 0 43 1 44 0 8 2 8 1 9 3 8 3 8 3 8 4 8 5 7 46 66 46 66 47 66 47 66 46 67 48 67 48 68 31 45 383 -429 50 0 49 0 48 0 47 0 47 0 46 0 45 0 45 0 -811 909 117 0 139 0 139 0 139 0 139 0 138 0 -2891 3237 708 3 -1793 2008 1114 0 937 -1049 2060 -943 2724 -3051 -63 77 -48 87 -30 98 -10 104 0 1128 776 -869 6622 0 -6927 7757 46 5 63 0 9015 -10096 -91 102 -718 1020 938 -1050 126 -100 133 -65 128 -37 116 -17 95 -4 63 3 23 3 -3445 3858 -1131 1607 -119 146 -85 105 -51 77 -18 58 15 50 49 53 81 65 114 90 112 92 81 66 62 36 52 5 15 -9 304 -340 4319 -4698 -5522 6182 184 -49 230 -83 190 -103 122 -120 -2815 3153 7 0 6931 -7762 2070 0 0 6209 -1387 1553 1646 0 104 -11 97 -30 88 -48 77 -63 -5220 5845 -230 0 -1646 0 -767 0 -37 0 -1896 0 -1896 0 -54 0 -85 0 -53 0 -395 0 -362 0 -2070 0 -7 0 -113 0 -295 0 -99 0 -24 0 -492 0 -561 0 -104 0 -200 0 -60 0 -41 0 -22 0 -44 0 -316 0 -8 0 -193 0 0 0 -63 0 -50 0 -929 0 -1399 0 -2074 0 -224 0 -1248 0 -1 0 -123 0 -624 0 -432 0 -575 0 -39 0 -137 0 -530 0 -113 0 -126 0 -448 0 -974 0 -140 0 -396 0 -314 0 -195 0 0 -474 0 -217 0 -335 0 -46 0 -41 0 -370 0 -85 0 -24 0 -435 0 -88 0 -348 0 -12 0 -325 0 -15 0 -37 0 -28 0 -58 0 -320 0 -108 0 -419 0 -85 0 -368 0 -54 0 -361 0 -370 0 -583 0 -451 8601 -9631 0 88 0 88 0 88 0 88 0 88 0 87 0 88 0 88 0 87 0 88 0 87 0 68 497 -556 81 0 81 0 81 0 81 0 82 0 82 0 82 0 83 0 -827 926 48 0 1254 -1403 -1 46 -1 47 0 46 -1 47 -1 46 0 47 0 46 0 47 1 6 2 7 3 6 4 7 5 7 5 6 5 6 4 6 42 60 41 59 42 59 42 59 42 59 42 59 41 59 42 59 4 5 3 6 4 5 4 6 4 6 3 6 388 -434 46 0 46 0 45 0 45 0 44 0 45 0 45 0 45 0z"/>
   <g>
    <path fill="#727376" fill-rule="nonzero" d="M23799 15799c-224,-165 -248,-412 -248,-412l-84 -538 -2680 0 -85 537c0,0 -23,248 -247,413 -224,165 -401,306 -224,330 170,23 1777,2 1896,0 119,2 1726,23 1896,0 176,-24 0,-165 -224,-330z"/>
    <path fill="#FF7B00" fill-rule="nonzero" d="M19108 11505c716,-6 805,-178 1039,-896 430,-1135 2368,297 1167,793 -1201,497 -2922,109 -2206,103z"/>
    <path fill="#96989A" fill-rule="nonzero" d="M26449 4030c-119,-96 -264,-142 -418,-145l-26 0c-291,5 -610,165 -842,453l-3672 5218c-363,450 -361,364 -14,644 347,280 264,300 626,-150l4319 -4698c362,-451 374,-1042 27,-1322zm-944 625c0,0 -54,-63 -233,-206 268,-438 795,-358 795,-358 -499,296 -562,564 -562,564z"/>
    <path fill="#848688" fill-rule="nonzero" d="M28078 5793l-1615 0 -714 777 2070 0 0 6209 -11384 0 0 -6209 6622 0 547 -777 -7428 0c-286,0 -517,232 -517,518l0 7503c0,286 231,518 517,518l11902 0c285,0 517,-232 517,-518l0 -7503c0,-286 -232,-518 -517,-518z"/>
    <path fill="#848688" fill-rule="nonzero" d="M12951 5306c0,145 0,289 0,434 -370,0 -740,0 -1110,0 0,-150 0,-301 0,-457 125,0 242,0 367,0 -129,-183 -253,-358 -376,-534 -12,-18 -21,-43 -21,-64 -2,-116 -1,-232 0,-348 379,0 758,0 1140,0 0,165 0,330 0,494 -120,0 -241,0 -377,0 133,167 255,321 377,475z"/>
    <path fill="#848688" fill-rule="nonzero" d="M11356 5740c-366,0 -733,0 -1100,0 0,-150 0,-301 0,-457 122,0 238,0 362,0 -14,-22 -23,-36 -33,-50 -111,-157 -223,-315 -334,-473 -11,-16 -29,-34 -29,-51 -1,-124 2,-248 4,-372 377,0 753,0 1130,0 0,164 0,328 0,496 -121,0 -236,0 -361,0 14,21 22,34 32,47 103,132 207,265 309,398 11,15 21,35 21,53 1,137 0,273 -1,409z"/>
    <path fill="#848688" fill-rule="nonzero" d="M9751 5740c-383,0 -766,0 -1150,0 0,-467 0,-933 0,-1403 383,0 767,0 1150,0 0,157 0,314 0,477 -222,0 -438,0 -653,0 0,159 0,313 0,473 219,0 435,0 653,0 0,155 0,304 0,453z"/>
    <path fill="#FEFEFE" fill-rule="nonzero" d="M7005 6575l712 7712 3065 848 3058 -851 708 -7709 -7543 0z"/>
    <path fill="#02B4D4" fill-rule="nonzero" d="M7005 6575l712 7712 3065 848 3058 -851 708 -7709 -7543 0zm4924 5739l128 -1326 -1281 0 -2196 0 -129 -900 2317 -1108 -2318 -9 -188 -1012 2514 0 2541 -1 1 931 -2292 1050 2105 0 -261 3108 -2093 696 -1 0 -2033 -746 -120 -1458 984 0 84 729 1085 315 1 0 1152 -269z"/>
   </g>
   <path fill="#373435" fill-opacity="0.031373" d="M2082 17547c68,104 112,203 155,312 32,64 49,183 199,183 44,0 107,-14 163,-45 63,-33 111,-83 136,-159l60 -202 146 -72 10 10c-20,77 -25,149 -25,206 0,170 146,234 262,234 68,0 129,-34 129,-95 0,-81 -34,-217 -78,-339 68,-68 136,-136 214,-191l12 6c34,144 53,287 53,381 0,93 -41,196 -75,264 -70,132 -194,238 -344,238 -114,0 -241,-58 -328,-163l-5 0c-82,101 -209,193 -412,193l-63 0c-10,134 -39,229 -83,314 -121,237 -480,404 -818,404 -470,0 -706,-272 -706,-633 0,-223 73,-431 185,-578l92 38c-70,134 -117,262 -117,385 0,338 275,499 592,499 294,0 658,-187 724,-404 -25,-237 -114,-348 -250,-565 41,-72 94,-144 160,-221l12 0zm5421 -1274c99,62 196,136 291,221 -53,74 -119,142 -201,202 -95,-77 -190,-143 -287,-213 66,-74 131,-146 197,-210zm51 926c-160,0 -291,105 -291,183 0,168 320,219 703,217 -48,-196 -216,-400 -412,-400zm-359 895c208,0 390,-6 529,-41 155,-39 286,-118 286,-171 0,-15 0,-31 -5,-46 -87,8 -187,8 -274,8 -282,0 -498,-64 -583,-222 -21,-44 -36,-93 -36,-149 0,-152 66,-303 182,-406 97,-85 204,-138 313,-138 197,0 354,158 464,408 60,136 101,293 101,491 0,132 -36,243 -118,326 -153,148 -435,204 -867,204l-196 0 0 0 -51 0c-107,0 -184,-19 -245,-66l-10 0c3,25 5,50 5,72 0,97 -32,221 -97,320 -192,287 -400,410 -580,410 -182,0 -405,-70 -606,-161l36 -70c65,27 155,46 279,46 325,0 752,-314 805,-619 -12,-25 -34,-58 -65,-93 -95,-113 -155,-208 -211,-307 48,-95 92,-171 133,-239l17 -2c139,282 265,445 546,445l44 0 0 0 204 0zm-1408 299c24,-130 26,-276 26,-413l0 -202c0,-377 -48,-926 -87,-1282 68,-75 163,-161 238,-219l22 6c51,450 63,972 63,1452 0,126 -5,250 -17,340 -7,114 -73,201 -214,332l-31 -14zm-1449 -596c7,177 94,318 398,318 189,0 349,-50 526,-135 32,-14 49,-33 49,-49 0,-111 -85,-258 -228,-392 -139,-126 -323,-237 -495,-311 -59,-25 -78,-52 -78,-77 0,-51 68,-158 124,-235l19 -2c197,103 417,256 580,427 148,157 240,316 240,489 0,128 -39,250 -102,361 -216,109 -446,192 -674,192 -277,0 -466,-130 -466,-436 0,-33 0,-84 12,-150l95 0zm-501 -503l172 278c63,103 122,215 122,392l0 227c0,183 -117,379 -306,573 -148,132 -279,188 -400,188 -180,0 -386,-56 -624,-159l27 -70c75,21 162,37 269,37 342,-2 692,-252 852,-557 19,-35 26,-68 26,-90 0,-36 -19,-75 -34,-110 -87,-165 -184,-315 -291,-453 56,-89 112,-174 173,-258l14 2z"/>
  </g>
 </g>
</svg>
