<?xml version="1.0" encoding="UTF-8"?>
<!DOCTYPE svg PUBLIC "-//W3C//DTD SVG 1.0//EN" "http://www.w3.org/TR/2001/REC-SVG-20010904/DTD/svg10.dtd">
<!-- Creator: CorelDRAW 2017 -->
<svg xmlns="http://www.w3.org/2000/svg" xml:space="preserve" width="356px" height="200px" version="1.0" shape-rendering="geometricPrecision" text-rendering="geometricPrecision" image-rendering="optimizeQuality" fill-rule="evenodd" clip-rule="evenodd"
viewBox="0 0 35600 20025"
 xmlns:xlink="http://www.w3.org/1999/xlink">
 <g id="Layer_x0020_1">
  <metadata id="CorelCorpID_0Corel-Layer"/>
  <g id="_2746384776928">
   <path fill="#E6E7E8" d="M0 0l35600 0 0 20025 -35600 0 0 -20025z"/>
   <path fill="#373435" fill-opacity="0.078431" d="M18585 20025l3634 -3452 -4411 1227 -59 -16 2887 -2743 70 -76 398 -4014 -712 -1 712 -676 -280 -2832 -3024 0 -1468 0 3361 -3193 -118 0 -119 0 -118 0 -118 0 -118 0 -117 0 -118 0 -118 0 -118 0 -117 0 -118 0 -118 0 -118 0 -14 0 575 -547 -17 -18 950 -902 -109 0 -108 0 -109 0 -108 0 -110 0 -110 0 -111 0 -112 0 -481 456 -1 -1 -89 -97 -90 -96 -89 -97 -89 -96 -90 -96 -12 -14 -10 -14 -8 -14 -7 -15 -5 -15 -4 -17 -2 -17 0 -18 1 -51 1 -50 0 -51 0 -51 0 -51 0 -51 0 -50 0 -51 -1017 966 0 -138 0 -149 0 -150 0 -150 0 -150 0 -150 0 -10 0 -10 1 -9 0 -10 1 -10 1 -10 1 -10 0 -10 -4345 4128 -83 -899 -12361 11741 0 2830 18585 0z"/>
   <path fill="#4B4B4D" fill-rule="nonzero" d="M19654 2225c0,183 0,367 0,557 -290,0 -575,0 -877,0 26,30 42,50 59,68 275,299 551,597 826,896 13,14 29,32 30,49 2,150 1,300 1,454 -632,0 -1257,0 -1887,0 0,-179 0,-358 0,-547 298,0 597,0 915,0 -62,-68 -110,-122 -159,-175 -237,-258 -475,-516 -714,-772 -34,-37 -49,-74 -48,-124 4,-135 2,-271 2,-406 617,0 1234,0 1852,0z"/>
   <path fill="#4B4B4D" fill-rule="nonzero" d="M17455 2225c2,20 5,39 5,59 1,635 1,1270 1,1905 0,17 -2,35 -3,58 -541,0 -1081,0 -1625,0 0,-219 0,-436 0,-660 314,0 628,0 952,0 0,-33 0,-58 0,-84 0,-400 -1,-799 0,-1199 0,-26 3,-53 4,-79 222,0 444,0 666,0z"/>
   <path fill="#FEFEFE" fill-rule="nonzero" d="M12361 5454l1027 11124 4420 1222 4411 -1227 1021 -11119 -10879 0z"/>
   <path fill="#FFB300" fill-rule="nonzero" d="M12361 5454l1027 11124 4420 1222 4411 -1227 1021 -11119 -10879 0zm3944 3467l-205 2024 1700 2 3304 4 -398 4014 -70 76 -2836 721 -70 18 -2973 -741 -65 -56 -196 -2041 1463 0 103 997 68 74 1548 362 122 -28 1464 -335 71 -61 161 -1675 -1696 0 -3303 0 481 -4834 2822 0 3024 0 280 2832 -1476 6 -135 -1361 -1693 1 -1495 1z"/>
   <path fill="#373435" fill-opacity="0.031373" d="M2082 17547c68,103 112,202 155,312 32,63 49,183 199,183 44,0 107,-14 163,-45 63,-33 112,-83 136,-159l60 -202 146 -72 10 10c-20,76 -25,148 -25,206 0,169 146,233 263,233 68,0 128,-33 128,-95 0,-80 -34,-216 -77,-338 67,-68 135,-136 213,-192l12 6c34,145 53,287 53,382 0,93 -41,196 -75,264 -70,132 -194,237 -344,237 -114,0 -240,-58 -328,-163l-5 0c-82,101 -208,194 -412,194l-63 0c-10,134 -39,229 -83,314 -121,237 -480,404 -817,404 -471,0 -706,-272 -706,-633 0,-223 72,-431 184,-578l92 37c-70,134 -116,262 -116,386 0,338 274,499 592,499 293,0 657,-188 723,-404 -24,-237 -114,-349 -250,-565 41,-72 95,-145 160,-221l12 0zm5421 -1275c99,62 196,137 291,221 -53,74 -119,143 -201,202 -95,-76 -190,-142 -287,-212 66,-74 131,-147 197,-211zm51 927c-160,0 -291,105 -291,183 0,167 320,219 703,217 -48,-196 -216,-400 -412,-400zm-359 895c208,0 390,-7 529,-42 155,-39 286,-117 286,-171 0,-14 0,-31 -5,-45 -87,8 -187,8 -274,8 -281,0 -497,-64 -582,-223 -22,-43 -37,-93 -37,-148 0,-153 66,-303 182,-406 97,-85 204,-139 313,-139 197,0 355,159 464,409 60,136 102,293 102,491 0,132 -37,243 -119,325 -153,149 -435,205 -866,205l-197 0 0 0 -51 0c-107,0 -184,-19 -245,-66l-10 0c3,24 5,49 5,72 0,97 -31,220 -97,319 -192,287 -400,411 -580,411 -182,0 -405,-70 -606,-161l36 -70c66,27 155,45 279,45 325,0 752,-313 806,-619 -13,-24 -34,-57 -66,-92 -95,-114 -155,-209 -211,-308 49,-94 92,-171 133,-239l17 -2c139,283 265,446 546,446l44 0 0 0 204 0zm-1408 299c24,-130 27,-277 27,-413l0 -202c0,-377 -49,-926 -88,-1283 68,-74 163,-161 238,-218l22 6c51,449 63,971 63,1452 0,126 -5,249 -17,340 -7,113 -73,200 -214,332l-31 -14zm-1449 -596c7,177 94,317 398,317 189,0 349,-49 526,-134 32,-14 49,-33 49,-49 0,-112 -85,-258 -228,-392 -138,-126 -323,-237 -495,-312 -58,-24 -78,-51 -78,-76 0,-51 68,-159 124,-235l19 -2c197,103 418,256 580,427 148,157 240,315 240,489 0,128 -38,249 -101,360 -216,110 -447,192 -675,192 -277,0 -466,-130 -466,-435 0,-33 0,-84 12,-150l95 0zm-501 -504l173 279c63,103 121,214 121,392l0 226c0,184 -117,380 -306,574 -148,132 -279,187 -400,187 -180,0 -386,-55 -624,-158l27 -70c75,20 163,37 269,37 342,-2 692,-252 852,-557 19,-35 27,-68 27,-91 0,-35 -20,-74 -34,-109 -88,-165 -185,-316 -291,-454 55,-89 111,-173 172,-258l14 2z"/>
  </g>
 </g>
</svg>
